<svg width="418" height="571" viewBox="0 0 418 571" fill="none" xmlns="http://www.w3.org/2000/svg">
<path d="M136.348 571C133.165 571.003 130.019 570.307 127.133 568.962C124.246 567.617 121.689 565.655 119.641 563.214C117.592 560.774 116.102 557.913 115.275 554.834C114.448 551.754 114.304 548.531 114.854 545.39V545.259L148.235 361.648H18.9982C15.4109 361.647 11.8971 360.63 8.86307 358.713C5.82906 356.795 3.39883 354.057 1.85347 350.814C0.308119 347.572 -0.289224 343.957 0.130545 340.388C0.550313 336.82 1.97004 333.443 4.22551 330.649L264.492 8.36539C267.455 4.59852 271.568 1.90725 276.202 0.703145C280.835 -0.500964 285.736 -0.151641 290.153 1.6977C294.57 3.54703 298.26 6.79459 300.66 10.9438C303.06 15.0929 304.038 19.9153 303.443 24.6735C303.443 25.0303 303.348 25.3753 303.288 25.7321L269.789 209.391H399.002C402.589 209.392 406.103 210.409 409.137 212.326C412.171 214.243 414.601 216.982 416.147 220.224C417.692 223.467 418.289 227.082 417.869 230.65C417.45 234.219 416.03 237.596 413.775 240.39L153.472 562.673C151.427 565.262 148.825 567.355 145.86 568.797C142.895 570.238 139.644 570.992 136.348 571V571Z" fill="#444444"/>
<path d="M188.263 318.986L214.786 340.041L202.755 350.5L176.642 329.582L188.263 318.986ZM215.265 280.705V285.832C215.265 293.352 214.262 300.119 212.257 306.135C210.252 312.105 207.381 317.186 203.644 321.379C199.952 325.572 195.555 328.785 190.45 331.018C185.346 333.251 179.695 334.367 173.497 334.367C167.345 334.367 161.694 333.251 156.544 331.018C151.44 328.785 147.019 325.572 143.282 321.379C139.545 317.186 136.652 312.105 134.601 306.135C132.55 300.119 131.525 293.352 131.525 285.832V280.705C131.525 273.14 132.527 266.372 134.532 260.402C136.583 254.432 139.454 249.351 143.146 245.158C146.883 240.92 151.303 237.684 156.407 235.451C161.557 233.218 167.208 232.102 173.361 232.102C179.558 232.102 185.21 233.218 190.314 235.451C195.463 237.684 199.884 240.92 203.575 245.158C207.312 249.351 210.183 254.432 212.189 260.402C214.239 266.372 215.265 273.14 215.265 280.705ZM196.261 285.832V280.568C196.261 275.145 195.76 270.383 194.757 266.281C193.754 262.134 192.251 258.648 190.245 255.822C188.286 252.997 185.893 250.878 183.068 249.465C180.242 248.007 177.006 247.277 173.361 247.277C169.76 247.277 166.547 248.007 163.722 249.465C160.896 250.878 158.504 252.997 156.544 255.822C154.585 258.648 153.081 262.134 152.032 266.281C151.03 270.383 150.529 275.145 150.529 280.568V285.832C150.529 291.21 151.03 295.972 152.032 300.119C153.081 304.266 154.585 307.775 156.544 310.646C158.549 313.472 160.965 315.614 163.79 317.072C166.661 318.531 169.897 319.26 173.497 319.26C177.143 319.26 180.379 318.531 183.204 317.072C186.03 315.614 188.4 313.472 190.314 310.646C192.273 307.775 193.754 304.266 194.757 300.119C195.76 295.972 196.261 291.21 196.261 285.832ZM259.827 233.469V333H241.028V233.469H259.827Z" fill="white"/>
</svg>
